<?xml version="1.0" standalone="no"?>
<!DOCTYPE svg PUBLIC "-//W3C//DTD SVG 20010904//EN"
 "http://www.w3.org/TR/2001/REC-SVG-20010904/DTD/svg10.dtd">
<svg version="1.0" xmlns="http://www.w3.org/2000/svg"
 width="294.000000pt" height="294.000000pt" viewBox="0 0 294.000000 294.000000"
 preserveAspectRatio="xMidYMid meet">
<metadata>
Created by potrace 1.11, written by Peter Selinger 2001-2013
</metadata>
<g transform="translate(0.000000,294.000000) scale(0.100000,-0.100000)"
fill="#000000" stroke="none">
<path d="M1030 2908 c-14 -6 -29 -12 -35 -14 -50 -16 -111 -39 -115 -43 -3 -3
-13 -7 -24 -9 -10 -2 -30 -8 -45 -14 -14 -6 -35 -13 -46 -15 -11 -2 -24 -8
-29 -13 -6 -6 -18 -10 -29 -10 -10 0 -27 -5 -38 -10 -18 -10 -18 -13 -4 -47 8
-20 13 -38 11 -40 -2 -2 3 -25 11 -51 7 -26 16 -63 19 -82 3 -19 10 -42 15
-51 4 -9 5 -19 2 -23 -3 -3 -1 -6 6 -6 7 0 10 -4 7 -8 -2 -4 3 -41 13 -82 11
-49 16 -110 15 -175 -1 -55 -2 -100 -3 -100 -3 0 -41 -137 -43 -152 -1 -7 -5
-13 -8 -13 -4 0 -13 -14 -21 -31 -7 -18 -23 -45 -37 -60 -13 -16 -20 -29 -16
-29 5 0 -2 -7 -14 -16 -12 -8 -20 -20 -16 -25 3 -5 2 -8 -3 -7 -12 4 -133
-126 -133 -142 0 -8 -3 -10 -7 -7 -6 6 -77 -89 -71 -96 2 -1 -9 -15 -24 -31
-14 -16 -34 -49 -43 -73 -9 -23 -21 -43 -26 -43 -5 0 -9 -9 -9 -19 0 -11 -5
-23 -10 -26 -6 -4 -8 -10 -5 -15 3 -5 0 -12 -6 -15 -5 -4 -8 -13 -5 -21 3 -8
2 -14 -3 -14 -5 0 -12 -17 -16 -37 -5 -21 -9 -42 -11 -48 -2 -5 -5 -20 -8 -33
-3 -13 -8 -33 -12 -44 -8 -25 -8 -218 -1 -244 4 -10 9 -35 12 -54 10 -61 73
-220 95 -240 3 -3 11 -17 17 -33 7 -15 17 -27 23 -27 5 0 10 -4 10 -10 0 -11
16 -29 88 -102 26 -26 50 -48 54 -48 4 0 17 -10 30 -23 24 -24 57 -42 71 -38
5 1 6 -3 3 -8 -6 -8 11 -20 25 -17 4 0 15 -6 25 -15 47 -39 232 -103 364 -125
142 -23 376 -23 480 1 14 3 39 8 55 10 31 4 49 8 99 21 26 6 28 5 21 -12 -17
-41 -16 -60 5 -81 29 -31 54 -29 83 8 l25 32 6 -31 c7 -30 22 -42 63 -49 34
-6 58 37 44 78 -6 18 -11 33 -11 35 0 3 38 -9 50 -16 10 -6 50 21 45 30 -3 4
0 10 7 12 21 7 0 56 -32 70 -35 15 -38 28 -10 35 11 3 20 10 20 15 0 5 4 7 9
3 5 -3 15 0 23 7 7 7 20 14 28 16 8 2 17 8 18 13 2 5 8 7 13 3 5 -3 9 0 9 6 0
6 5 8 10 5 6 -3 10 -1 10 4 0 6 5 11 11 11 15 0 129 81 129 92 0 5 4 7 8 4 5
-3 35 20 67 50 33 30 60 54 62 54 10 0 77 85 75 94 -2 6 -1 8 3 4 7 -7 35 14
35 26 0 3 9 16 20 28 10 13 20 26 20 30 0 4 11 18 23 32 25 27 93 155 89 168
-1 4 2 8 7 8 9 0 42 91 62 170 22 88 30 248 16 337 -18 117 -94 285 -161 356
-19 20 -32 37 -28 37 12 0 -74 82 -118 113 -25 17 -48 35 -52 41 -4 6 -8 7 -8
2 0 -6 -6 -3 -13 6 -16 22 -199 114 -215 109 -1 -1 -17 5 -35 12 -28 12 -92
29 -122 32 -5 1 -19 4 -31 8 -11 4 -45 9 -75 12 -30 3 -72 8 -94 11 -22 3 -51
6 -65 8 -14 1 -31 6 -38 10 -7 4 -12 5 -12 2 0 -3 -16 2 -35 10 -19 8 -37 14
-40 14 -13 0 -85 36 -85 42 0 5 -6 8 -14 8 -7 0 -29 13 -47 30 -19 16 -42 32
-52 36 -9 3 -15 10 -12 15 4 5 -1 9 -10 9 -9 0 -14 4 -10 9 3 5 -4 12 -15 16
-11 4 -18 10 -15 15 3 5 -5 16 -17 25 -13 8 -21 18 -19 21 1 3 -5 16 -15 28
-11 12 -20 29 -22 36 -2 7 -11 25 -22 39 -10 14 -18 29 -19 33 -1 9 -152 318
-154 317 -1 0 -13 -5 -27 -11z"/>
</g>
</svg>
